<?xml version="1.0" encoding="UTF-8" standalone="no"?>
<!-- Created with Inkscape (http://www.inkscape.org/) -->

<svg
   width="1000"
   height="1000"
   viewBox="0 0 264.58333 264.58333"
   version="1.1"
   id="svg1"
   xmlns="http://www.w3.org/2000/svg"
   xmlns:svg="http://www.w3.org/2000/svg">
  <defs
     id="defs1" />
  <g
     id="layer1"
     transform="translate(-20.594833,-88.665294)">
    <g
       id="g1"
       transform="matrix(17.531335,0,0,17.531335,-340.46009,-1465.755)"
       style="stroke-width:0.0570406">
      <path
         id="rect412"
         style="fill:#9f927f;stroke-width:0.0271514;stroke-linecap:square"
         d="M 20.594833,88.665253 H 35.686857 V 103.75728 H 20.594833 Z" />
      <path
         style="fill:#595342;fill-opacity:1;stroke-width:0.0271514;stroke-linecap:square"
         d="m 28.141455,94.10453 -0.43356,0.96687 -1.28158,-0.57516 0.57464,1.28003 -0.96738,0.43459 0.96738,0.4346 -0.57516,1.28054 1.28209,-0.57515 0.43357,0.96687 0.43357,-0.96687 1.28209,0.57516 -0.57516,-1.28055 0.96739,-0.4346 -0.96739,-0.43459 0.57465,-1.28003 -1.28158,0.57516 z"
         id="path390" />
      <path
         id="path391"
         style="fill:#32230f;fill-opacity:1;stroke-width:0.0271514;stroke-linecap:square"
         d="m 26.587545,92.27467 -0.79943,0.80047 0.34416,0.76585 1.33532,0.59944 0.41238,-0.91932 -0.55862,-1.24644 z m 2.37454,0 -0.56018,1.24954 0.41135,0.91621 1.3379,-0.60047 0.34365,-0.76481 -0.80047,-0.80047 z m -3.95739,1.58388 -0.79892,0.79789 v 0.73328 l 1.24747,0.5607 0.91881,-0.41238 -0.59893,-1.3348 z m 6.27352,0 -0.76843,0.34468 -0.59892,1.33481 0.91879,0.41238 1.24748,-0.5607 v -0.73225 z m -5.82445,2.6138 -1.24799,0.56069 v 0.73328 l 0.79892,0.79789 0.76844,-0.34468 0.59892,-1.33532 z m 5.37538,0 -0.91829,0.41186 0.59893,1.33532 0.76843,0.34468 0.79892,-0.79892 v -0.73225 z m -3.36155,1.50946 -1.33532,0.59945 -0.34417,0.76585 0.79996,0.80099 0.73329,-1e-5 0.55914,-1.24695 z m 1.34566,0 -0.41135,0.91675 0.56018,1.24953 h 0.73225 l 0.80047,-0.80099 -0.34365,-0.7648 z" />
      <path
         id="path399"
         style="fill:#550000;fill-opacity:1;stroke-width:0.0271514;stroke-linecap:square"
         d="m 27.278465,90.19831 -10e-6,1.38493 -0.21652,0.21652 0.56586,10e-6 0.51263,1.14204 0.51262,-1.14205 h 0.56638 l -0.21652,-0.21652 v -1.38493 h -0.39481 l -0.46664,0.46665 -0.46838,-0.46697 z m -2.77916,1.15032 -0.27957,0.27957 v 0.66198 h -0.66198 l -0.27853,0.27853 0.92655,0.92656 v 0.48628 l 0.69351,-0.6935 0.5798,0.26044 -0.25941,-0.57877 0.69505,-0.69505 h -0.4899 z m 7.28328,5.1e-4 -0.92605,0.92553 h -0.48834 l 0.69505,0.69505 -0.2589,0.57723 0.57722,-0.2589 0.69557,0.69556 v -0.48834 l 0.92553,-0.92605 -0.27906,-0.27905 h -0.66198 l 1e-5,-0.66197 z m -8.05327,3.78324 -0.21652,0.21652 h -1.38493 l 10e-6,0.39429 0.46663,0.46664 -0.46696,0.46838 v 0.3948 h 1.38492 l 0.21653,0.21652 v -0.56637 l 1.14257,-0.51263 -1.14257,-0.51262 z m 8.82428,0.002 v 0.5643 l -1.14257,0.51263 1.14257,0.51263 v 0.56482 l 0.21497,-0.21497 h 1.38648 v -0.39481 l -0.46838,-0.46696 0.46871,-0.46871 -10e-6,-0.39429 -1.38647,1e-5 z m -0.47646,3.30419 -0.69557,0.69557 -0.57722,-0.2589 0.2589,0.57722 -0.69557,0.69557 0.48886,-1e-5 0.92605,0.92553 0.27905,-0.27906 -1e-5,-0.66197 h 0.66198 l 0.27957,-0.27906 -0.92604,-0.92604 z m -7.87136,0.002 v 0.48679 l -0.92655,0.92656 0.27853,0.27803 0.66198,-1e-5 v 0.66249 l 0.27957,0.27957 0.92552,-0.92604 h 0.49041 l -0.69556,-0.69556 0.25941,-0.5793 -0.5798,0.26045 z m 3.93465,1.03922 -0.51263,1.14204 -0.56586,1e-5 0.21653,0.21704 v 1.38492 l 0.39429,1e-5 0.46864,-0.46723 0.46664,0.46716 h 0.39481 l -10e-6,-1.38493 0.21705,-0.21704 h -0.5669 z" />
      <path
         id="path400"
         style="fill:#7f6b4f;fill-opacity:1;stroke-width:0.0271514;stroke-linecap:square"
         d="m 25.649625,90.19831 -0.81442,0.81442 0.78703,0.78703 h 0.76739 l 0.41393,-0.41392 v -1.18753 z m 3.82974,0 v 1.18753 l 0.41392,0.41392 0.76585,10e-6 0.78704,-0.78704 -0.81391,-0.81442 z m -6.53707,2.70733 -0.81442,0.81442 -10e-6,1.15187 h 1.18753 l 0.41393,-0.41393 v -0.76533 z m 10.39781,5.2e-4 -0.78651,0.78651 v 0.76687 l 0.41237,0.41238 1.18908,1e-5 v -1.15135 z m -11.21223,4.64416 -10e-6,1.15187 0.81443,0.81493 0.78703,-0.78703 v -0.76584 l -0.41393,-0.41393 z m 10.83809,0 -0.41237,0.41237 v 0.7674 l 0.78651,0.78651 0.81494,-0.81545 v -1.15083 z m -7.34373,3.07165 -0.78704,0.78754 0.81443,0.81443 1.15393,-1e-5 v -1.18751 l -0.41445,-0.41445 z m 4.27158,0 -0.41445,0.41445 v 1.18751 l 1.1529,1e-5 0.81442,-0.81443 -0.78755,-0.78755 z" />
      <path
         id="path412"
         style="fill:#493425;fill-opacity:1;stroke-width:0.0271514;stroke-linecap:square"
         d="m 20.834935,88.90537 -1e-5,1.14256 0.32608,-0.32608 h 0.49041 v -0.49247 l 0.32401,-0.32401 z m 1.8929,-1e-5 0.81649,0.81649 h 1.90841 l 0.817,-0.81648 z m 4.2478,0 0.30283,0.30283 v 0.51367 h 0.59169 l 0.2713,0.2713 0.27182,-0.27131 h 0.58963 V 89.2082 l 0.30283,-0.30283 z m 3.03703,0 0.81648,0.81649 1.9079,1e-5 0.81649,-0.81649 z m 4.2938,1e-5 0.32348,0.32401 v 0.49247 h 0.49197 l 0.32452,0.32453 v -1.14102 z m -0.37621,0.29662 -0.51987,0.51986 0.74466,1e-5 v -0.29508 z m -11.57759,5.2e-4 -0.2248,0.22427 v 0.29508 h 0.74415 z m 4.27002,0.0222 -0.49661,0.49713 h 0.67748 v -0.31626 z m 3.03703,5.1e-4 -0.18035,0.18036 v 0.31626 l 0.67696,-1e-5 z m -8.30131,0.97307 -0.22479,0.22479 0.5178,0.5178 v -0.74259 z m 0.76947,0 -10e-6,1.21905 0.81443,0.81442 0.41806,-0.41806 0.38292,-1e-5 10e-6,-0.38292 0.41909,-0.41857 -0.81391,-0.81391 z m 1.8929,0 0.4775,0.47749 0.47749,-0.47749 z m 7.28483,0 0.4775,0.47749 0.47748,-0.47749 z m 1.62781,0 -0.8139,0.81391 0.41858,0.41857 -10e-6,0.38292 h 0.38293 l 0.41858,0.41858 0.81545,-0.81596 v -1.21802 z m 1.69653,0 1e-5,0.74311 0.51883,-0.51883 -0.22428,-0.22428 z m -13.79502,0.59996 v 3.54036 l 0.81649,-0.81649 v -1.90738 z m 14.61151,0.002 -0.81648,0.81648 -1e-5,1.90583 0.81649,0.81597 z m -13.31857,1.29139 10e-6,0.95498 0.47749,-0.47749 z m 12.02718,0 -0.47801,0.47801 0.47801,0.478 z m 0.47491,2.10426 v 0.67645 h 0.31626 l 0.18035,-0.18035 z m -12.97854,0.001 -0.49506,0.49506 0.18035,0.18035 h 0.31471 z m -0.81649,0.84749 1e-5,2.33422 0.30489,-0.30489 h 0.51159 V 96.4841 l 0.2713,-0.27182 -0.2713,-0.2713 v -0.5917 h -0.5116 z m 14.61151,0.002 -0.30282,0.30282 h -0.51366 l -1e-5,0.5917 -0.26975,0.26923 0.27008,0.2715 v 0.59169 h 0.51367 l 0.30282,0.30282 z m -14.10973,2.50424 -0.17984,0.17983 0.49455,0.49506 v -0.67489 z m 13.29324,0 1e-5,0.67593 0.49609,-0.4961 -0.17984,-0.17983 z m -13.79502,0.53175 v 3.54242 l 0.81649,-0.81649 v -1.90893 z m 14.61151,0.001 -0.81649,0.81649 1e-5,1.90686 0.81648,0.81648 z m -1.29139,1.29191 -0.47801,0.47852 0.47801,0.47801 z m -12.02717,5.2e-4 v 0.9555 l 0.47749,-0.47749 z m 0.81442,0.81442 -0.81442,0.8139 -10e-6,1.22008 1.2206,1e-5 0.81391,-0.81391 -0.4191,-0.41858 v -0.38293 l -0.38292,1e-5 z m 10.39781,0 -0.41909,0.41857 -0.38292,1e-5 -10e-6,0.38292 -0.41858,0.41858 0.81443,0.8139 1.22111,1e-5 v -1.21905 z m 1.28984,1.28984 v 0.74415 l 0.29456,-1e-5 0.22479,-0.22479 z m -12.97853,5.3e-4 -0.51934,0.51934 0.22427,0.22427 0.29507,1e-5 z m 2.84686,0.26561 -0.47801,0.47801 0.95601,-1e-5 z m 7.28534,5.1e-4 -0.47801,0.47749 h 0.9555 z m -10.94869,0.62942 v 1.14102 h 1.14101 l -0.32452,-0.32453 v -0.49196 h -0.49248 z m 14.61151,0 -0.32452,0.32453 h -0.49196 l -1e-5,0.49196 -0.32401,0.32453 h 1.1405 z m -7.30498,0.0527 -0.2713,0.27182 h -0.59169 v 0.51366 l -0.30283,0.30283 h 2.3301 l -0.30283,-0.30282 v -0.51367 h -0.58963 z m -6.01359,0.27182 v 0.29456 l 0.2248,0.22479 0.51935,-0.51935 z m 1.41594,0 -0.81649,0.81649 h 3.54242 l -0.81648,-0.81649 z m 2.58227,0 0.49661,0.49661 0.18087,-0.18035 v -0.31626 z m 3.35329,0 v 0.31626 l 0.18034,0.18035 0.4961,-0.49661 z m 1.34978,0 -0.817,0.81649 h 3.5419 l -0.81648,-0.81649 z m 2.58124,0 0.51987,0.51935 0.22479,-0.22479 v -0.29456 z" />
    </g>
  </g>
</svg>
